<svg width="800" height="800" viewBox="0 0 800 800" fill="none" xmlns="http://www.w3.org/2000/svg">
<path d="M133.86 317.42C136.111 289.994 141.177 267.451 149.057 249.793C156.937 232.134 166.318 218.797 177.2 209.78C188.457 200.763 200.465 195.691 213.224 194.564C226.357 193.061 239.303 194.564 252.061 199.072C259.942 202.078 266.321 206.774 271.199 213.161C276.452 219.173 280.205 226.123 282.456 234.013C285.083 241.527 286.209 249.229 285.833 257.119C285.458 265.009 283.394 272.335 279.642 279.098C277.015 283.607 273.638 287.176 269.51 289.806C265.383 292.06 261.067 293.563 256.564 294.314C252.061 294.69 247.746 294.314 243.618 293.187C239.491 291.684 236.113 289.806 233.487 287.552L230.672 284.734C230.297 284.358 230.11 283.982 230.11 283.607C233.862 280.225 237.614 274.965 241.367 267.827C245.495 260.688 248.497 253.362 250.373 245.848C252.249 237.958 252.437 230.632 250.936 223.869C249.81 216.73 245.87 211.658 239.115 208.653C232.736 205.647 226.545 205.083 220.541 206.962C214.537 208.841 208.908 213.913 203.655 222.178C198.777 230.068 194.461 241.527 190.709 256.556C187.332 271.584 184.893 290.745 183.392 314.039C181.515 343.344 177.2 369.268 170.446 391.811C163.691 414.353 155.061 433.514 144.554 449.294C159.564 453.803 175.136 460.002 191.272 467.892C207.407 475.782 224.106 485.738 241.367 497.761C257.878 509.032 273.45 518.8 288.085 527.066C302.719 535.331 315.665 540.216 326.923 541.719C338.555 543.597 347.936 541.531 355.066 535.519C362.571 529.508 367.261 518.049 369.138 501.142C369.138 500.766 369.701 500.391 370.826 500.015C372.327 499.639 373.828 499.451 375.329 499.451C377.205 499.827 378.706 500.578 379.833 501.706C380.958 502.833 381.521 504.899 381.521 507.905C381.521 522.557 376.83 534.392 367.449 543.409C358.443 552.426 346.06 558.062 330.3 560.316C314.915 562.946 296.903 561.819 276.265 556.935C255.626 552.051 233.674 542.658 210.409 528.757C190.521 516.734 173.072 506.402 158.063 497.761C143.428 489.495 130.107 482.732 118.1 477.472C96.7107 494.004 73.4456 500.954 48.3042 498.324C38.1726 497.197 30.6677 493.816 25.7895 488.18C21.2865 482.92 19.4103 477.097 20.1608 470.71C21.2865 464.323 24.8514 458.311 30.8553 452.676C36.8592 447.04 45.3022 443.095 56.1843 440.841C72.6951 437.835 90.8944 438.023 110.782 441.404C121.289 415.856 128.982 374.528 133.86 317.42ZM55.6215 484.235C71.3817 485.362 84.7029 479.727 95.585 467.328C77.198 460.941 62.9387 458.499 52.8071 460.002C48.6794 460.753 45.3022 462.444 42.6755 465.074C40.4241 467.328 39.2983 469.77 39.2983 472.4C39.2983 475.406 40.6117 478.036 43.2384 480.29C45.8651 482.544 49.9928 483.859 55.6215 484.235ZM379.055 395.192C377.554 398.198 376.053 401.203 374.552 404.209C373.051 407.215 371.362 410.22 369.486 413.226C373.989 415.105 378.304 415.856 382.432 415.48C385.809 415.48 388.811 414.541 391.438 412.663C394.44 410.784 397.066 408.718 399.318 406.463C401.569 404.209 403.446 402.143 404.947 400.264C406.448 398.386 407.386 397.071 407.761 396.319C408.511 395.192 409.825 395.568 411.701 397.446C413.952 398.949 413.577 402.706 410.575 408.718C408.324 412.85 404.759 417.171 399.881 421.68C395.003 426.188 388.436 428.442 380.18 428.442C374.552 428.442 368.548 426.564 362.169 422.807C356.915 429.194 351.287 435.205 345.283 440.841C339.279 446.476 333.275 451.361 327.271 455.493C321.267 459.626 315.451 462.82 309.822 465.074C304.569 467.328 300.066 468.267 296.313 467.892C291.435 467.516 286.745 466.013 282.242 463.383C278.114 460.378 274.361 456.245 270.984 450.985C267.982 445.349 265.731 438.774 264.23 431.26C263.104 423.37 263.292 413.978 264.793 403.082C265.918 394.816 266.669 387.49 267.044 381.103C267.795 374.34 268.17 368.141 268.17 362.505C268.545 356.87 268.545 351.61 268.17 346.726C268.17 341.466 267.982 336.206 267.607 330.946C267.982 330.57 269.859 329.631 273.236 328.128C276.988 326.625 281.116 325.498 285.619 324.747C290.497 323.62 295.375 323.244 300.253 323.62C305.131 323.995 309.447 325.874 313.199 329.255C318.453 334.515 321.079 341.278 321.079 349.543C321.079 357.433 318.453 370.207 313.199 387.866C307.946 406.651 306.257 420.552 308.133 429.569C310.385 438.211 314.325 442.531 319.954 442.531C323.706 442.531 328.772 439.901 335.151 434.641C341.53 429.382 347.534 422.995 353.163 415.48C350.161 412.475 347.534 409.093 345.283 405.336C343.031 401.203 341.343 396.883 340.217 392.374C337.965 385.236 336.84 377.534 336.84 369.268C337.215 360.627 338.528 352.737 340.78 345.598C343.031 338.46 346.408 332.637 350.911 328.128C355.789 323.244 361.606 320.802 368.36 320.802C373.989 321.177 378.492 323.62 381.869 328.128C385.246 332.261 387.31 337.896 388.061 345.035C388.811 352.173 388.436 360.063 386.935 368.705C385.434 377.346 382.807 386.175 379.055 395.192ZM353.726 387.866C354.476 395.004 356.728 400.828 360.48 405.336C361.606 403.458 362.544 401.767 363.294 400.264C364.42 398.386 365.358 396.507 366.109 394.629C370.612 384.109 372.676 375.279 372.3 368.141C372.3 361.003 370.236 357.058 366.109 356.306C361.981 355.93 358.604 358.936 355.977 365.323C353.35 371.335 352.6 378.849 353.726 387.866ZM724.839 405.336C726.715 407.59 728.404 410.033 729.905 412.663C731.03 414.917 731.781 417.735 732.156 421.116C732.531 424.497 731.969 428.254 730.468 432.387C728.216 438.399 724.276 443.095 718.647 446.476C713.019 449.858 706.452 452.488 698.947 454.366C698.947 481.793 701.386 500.954 706.264 511.85C711.518 522.745 717.897 528.381 725.402 528.757C730.655 529.132 735.909 527.629 741.162 524.248C746.416 521.242 751.294 517.297 755.797 512.413C760.3 507.905 764.24 503.021 767.617 497.761C770.994 492.501 773.246 487.992 774.371 484.235C774.371 483.859 774.747 483.672 775.497 483.672C776.623 484.047 777.561 484.799 778.311 485.926C779.437 487.053 780 488.744 780 490.998C780 493.628 779.249 496.821 777.748 500.578C775.497 505.838 772.12 511.474 767.617 517.485C763.489 523.497 758.423 528.944 752.419 533.829C746.416 539.089 739.849 543.409 732.719 546.791C725.589 550.172 717.897 551.863 709.642 551.863C693.131 551.863 681.123 544.349 673.618 529.32C666.488 514.668 662.361 490.434 661.235 456.62C653.73 456.245 645.662 455.869 637.032 455.493C628.776 454.742 620.709 453.803 612.828 452.676C605.324 451.173 598.382 449.482 592.002 447.603C585.999 445.725 581.308 443.471 577.931 440.841C577.555 440.841 577.368 440.841 577.368 440.841C577.368 440.465 577.18 440.277 576.805 440.277C565.548 493.252 548.849 533.829 526.71 562.007C504.57 590.185 477.74 604.838 446.22 605.965C431.21 606.341 418.264 603.711 407.382 598.075C396.875 592.815 388.62 585.677 382.616 576.66C376.237 567.642 372.297 557.31 370.796 545.664C368.92 534.392 369.67 522.933 373.047 511.286C376.8 497.385 382.804 484.423 391.059 472.4C398.939 460.378 408.133 450.233 418.639 441.968C429.146 433.702 440.591 427.691 452.974 423.934C465.357 420.177 477.74 419.425 490.124 421.68C498.379 423.182 504.008 426.564 507.01 431.824C510.387 436.708 512.263 441.968 512.638 447.603C513.013 453.239 512.638 458.311 511.512 462.82C510.387 466.952 509.636 469.019 509.261 469.019C479.241 463.383 453.912 464.323 433.274 471.837C412.636 479.727 398.939 493.252 392.185 512.413C388.057 524.436 386.931 535.707 388.808 546.227C390.308 556.747 394.061 565.764 400.065 573.278C406.069 581.168 413.574 586.992 422.579 590.749C431.961 594.506 442.092 595.821 452.974 594.694C483.744 590.936 506.447 562.758 521.081 510.159C535.716 457.56 541.907 379.412 539.656 275.717C539.281 264.07 538.905 252.798 538.53 241.903C538.155 231.007 537.217 220.3 535.716 209.78C541.344 206.023 546.973 203.393 552.602 201.89C557.48 200.387 562.546 199.823 567.799 200.199C573.053 200.199 577.743 202.078 581.871 205.835C588.625 211.471 592.378 219.924 593.128 231.195C593.879 242.091 594.066 257.495 593.691 277.407C592.94 304.834 591.44 330.57 589.188 354.616C587.312 378.661 584.497 401.016 580.745 421.68C585.623 422.055 591.252 422.431 597.631 422.807C604.385 422.807 611.327 422.807 618.457 422.807C625.962 422.807 633.279 422.807 640.409 422.807C647.914 422.431 654.668 422.243 660.672 422.243L662.924 359.688C664.425 330.382 665.175 306.525 665.175 288.115C665.175 269.705 664.8 255.053 664.049 244.157C663.674 233.262 662.736 225.184 661.235 219.924C660.109 214.288 658.984 209.78 657.858 206.398C663.862 203.017 669.866 200.387 675.87 198.509C681.123 196.63 686.564 195.691 692.193 195.691C697.821 195.691 702.887 197.381 707.39 200.763C711.893 204.52 715.27 209.404 717.522 215.415C719.773 221.427 720.899 229.317 720.899 239.085C721.274 248.478 720.524 260.313 718.647 274.59C717.146 288.491 714.707 305.398 711.33 325.31C708.328 343.72 705.889 360.439 704.013 375.467C702.512 390.496 701.386 404.397 700.636 417.171C706.264 415.292 710.955 413.414 714.707 411.535C718.46 409.281 721.837 407.215 724.839 405.336Z" fill="#035F00"/>
</svg>
